<svg width="75" height="96" viewBox="0 0 75 96" fill="none" xmlns="http://www.w3.org/2000/svg">
<path d="M72.0636 77.4181L72.0636 77.4177L74.4824 47.9231C74.7387 44.7955 72.1575 42.1434 68.9917 42.3316L68.9898 42.3317L49.0962 43.438L47.9065 43.5042L48.6927 42.6088L59.6426 30.1397L59.6429 30.1394C62.1845 27.2495 61.3753 22.7553 58.61 21.0312L58.6001 21.025L58.597 21.0231L58.5422 20.9906C58.4924 20.9612 58.4187 20.9179 58.3221 20.8614C58.1291 20.7485 57.847 20.5838 57.4881 20.3747C56.7706 19.9564 55.7474 19.3609 54.5205 18.6472C52.0667 17.2199 48.7984 15.3202 45.5313 13.4218C42.2641 11.5233 38.9982 9.62597 36.549 8.20328L33.5897 6.4844L32.7607 6.00289L32.5423 5.87604L32.4863 5.84352L32.4722 5.83529L32.4686 5.83322L32.468 5.83287C30.5155 4.70246 28.0707 4.94372 26.3964 6.4472L26.3953 6.44818L13.6456 17.8296L72.0636 77.4181ZM72.0636 77.4181C71.9198 79.1917 71.1599 80.4227 70.1384 81.1893C69.1069 81.9635 67.7742 82.2893 66.4599 82.1754C65.1454 82.0615 63.8822 81.5107 62.9884 80.5752C62.1031 79.6487 61.5545 78.319 61.6979 76.5809L61.6979 76.5805L63.5729 53.611L63.6196 53.0391L63.0466 53.0711L55.3404 53.5024L54.589 53.5444L54.919 54.2209C56.7804 58.036 57.8308 62.3113 57.8308 66.8457C57.8308 74.253 55.0074 81.0109 50.3857 86.0941M72.0636 77.4181L50.3857 86.0941M50.3857 86.0941L43.7177 79.4258C54.3788 67.1385 45.7645 47.5952 29.156 47.5952C24.3423 47.5952 19.9408 49.3721 16.5766 52.2837L9.90872 45.6156C13.9049 41.9882 18.9408 39.4679 24.5302 38.5571L24.7071 38.5283L24.8254 38.3937L38.9441 22.3244L39.3451 21.868L38.82 21.5623L30.8326 16.9122L30.5191 16.7296L30.2483 16.971L20.5734 25.5963L20.573 25.5966C19.269 26.7616 17.8799 27.123 16.612 26.9722C15.3315 26.8199 14.1362 26.1399 13.2562 25.1558C12.3763 24.1716 11.8341 22.9084 11.827 21.6187C11.8199 20.3416 12.3364 18.9997 13.6454 17.8298L50.3857 86.0941ZM71.8557 9.54403C71.8557 14.5368 67.8046 18.5881 62.812 18.5881C57.8195 18.5881 53.7684 14.5368 53.7684 9.54403C53.7684 4.55125 57.8195 0.5 62.812 0.5C67.8046 0.5 71.8557 4.55125 71.8557 9.54403ZM0.5 66.827C0.5 60.3761 2.64817 54.4116 6.2726 49.6375L13.0251 56.3902C4.81452 68.9712 13.7981 86.0963 29.1748 86.0963C33.0304 86.0963 36.619 84.9536 39.6295 82.9956L46.3808 89.7472C27.8263 103.735 0.5 90.7162 0.5 66.827Z" fill="white" stroke="black"/>
</svg>
